<?xml version="1.0" encoding="UTF-8" standalone="no"?>
<!DOCTYPE svg PUBLIC "-//W3C//DTD SVG 1.1//EN" "http://www.w3.org/Graphics/SVG/1.1/DTD/svg11.dtd">
<svg version="1.1" xmlns="http://www.w3.org/2000/svg" xmlns:xlink="http://www.w3.org/1999/xlink" preserveAspectRatio="xMidYMid meet" viewBox="0 0 640 640" width="640" height="640"><defs><path d="M630.85 224.77C662.05 272.07 608.11 291.54 549.44 330.24C490.76 368.94 456.97 411.81 425.77 364.51C394.57 317.2 416.87 247.38 475.55 208.68C534.23 169.98 599.65 177.47 630.85 224.77Z" id="bVH94fR3e"></path><path d="M6.97 228.27L5.1 231.66L3.53 234.96L2.26 238.17L1.28 241.29L0.58 244.34L0.16 247.3L0 250.19L0.1 253.01L0.45 255.76L1.05 258.46L1.88 261.1L2.94 263.68L4.23 266.22L5.72 268.72L7.43 271.18L9.33 273.61L11.42 276.01L13.7 278.38L16.15 280.73L18.77 283.06L21.55 285.39L24.49 287.7L27.57 290.02L30.79 292.33L34.14 294.65L37.61 296.98L41.2 299.33L44.9 301.69L48.7 304.08L52.59 306.5L56.57 308.95L60.62 311.43L64.75 313.96L68.94 316.53L73.18 319.16L77.47 321.84L81.8 324.57L86.17 327.37L90.56 330.24L94.91 333.15L99.18 336.06L103.35 338.98L107.44 341.88L111.44 344.76L115.36 347.62L119.2 350.43L122.96 353.2L126.64 355.92L130.25 358.57L133.79 361.15L137.25 363.65L140.65 366.05L143.98 368.36L147.25 370.56L150.45 372.64L153.6 374.6L156.69 376.42L159.72 378.1L162.7 379.62L165.63 380.99L168.5 382.18L171.33 383.2L174.12 384.02L176.86 384.66L179.56 385.08L182.22 385.29L184.85 385.28L187.44 385.04L190 384.55L192.52 383.82L195.02 382.82L197.49 381.56L199.94 380.02L202.37 378.2L204.77 376.09L207.16 373.67L209.53 370.94L211.89 367.89L214.23 364.51L216.47 360.92L218.51 357.25L220.36 353.51L222 349.69L223.46 345.82L224.72 341.88L225.79 337.89L226.67 333.85L227.36 329.77L227.87 325.65L228.19 321.49L228.33 317.3L228.28 313.09L228.06 308.86L227.66 304.62L227.08 300.37L226.33 296.11L225.41 291.86L224.31 287.61L223.04 283.37L221.61 279.15L220 274.94L218.24 270.77L216.31 266.63L214.21 262.52L211.96 258.45L209.54 254.43L206.97 250.47L204.25 246.55L201.37 242.7L198.34 238.92L195.15 235.21L191.82 231.57L188.34 228.01L184.71 224.55L180.94 221.17L177.03 217.89L172.97 214.71L168.78 211.64L164.45 208.68L160.04 205.86L155.6 203.22L151.15 200.75L146.68 198.45L142.21 196.32L137.73 194.36L133.24 192.57L128.76 190.95L124.28 189.5L119.82 188.21L115.36 187.1L110.92 186.15L106.51 185.36L102.11 184.74L97.75 184.29L93.42 184L89.12 183.87L84.87 183.91L80.66 184.11L76.49 184.47L72.38 185L68.32 185.68L64.33 186.52L60.39 187.52L56.52 188.69L52.73 190.01L49.01 191.48L45.36 193.12L41.8 194.91L38.32 196.86L34.94 198.96L31.65 201.22L28.45 203.63L25.36 206.19L22.37 208.91L19.49 211.78L16.73 214.8L14.08 217.97L11.55 221.3L9.15 224.77L9.15 224.77L6.97 228.27Z" id="aqT3P0Evr"></path><path d="M341.93 78.33L347.55 79.41L353.08 80.76L358.53 82.39L363.9 84.26L369.17 86.38L374.34 88.73L379.41 91.29L384.38 94.06L389.24 97.01L393.98 100.15L398.61 103.45L403.12 106.9L407.5 110.49L411.75 114.21L415.87 118.04L419.84 121.97L423.68 125.99L427.37 130.09L430.91 134.25L434.29 138.46L437.52 142.71L440.58 146.98L443.47 151.27L446.19 155.55L448.74 159.82L451.11 164.07L453.29 168.28L455.29 172.44L457.09 176.53L458.7 180.54L460.1 184.47L461.3 188.3L462.29 192.01L463.07 195.59L463.63 199.03L463.97 202.32L464.09 205.44L463.97 208.46L463.62 211.45L463.04 214.41L462.23 217.33L461.21 220.22L459.97 223.06L458.52 225.86L456.86 228.62L455.01 231.32L452.95 233.98L450.7 236.59L449.63 237.72L451.26 241.87L453.5 248.16L455.55 254.61L457.42 261.2L459.12 267.93L460.65 274.8L462 281.8L463.19 288.92L464.21 296.15L465.07 303.5L465.77 310.95L466.31 318.5L466.69 326.14L466.92 333.87L466.99 341.68L466.92 349.49L466.69 357.22L466.31 364.86L465.77 372.41L465.07 379.86L464.21 387.21L463.19 394.44L462 401.56L460.65 408.56L459.12 415.43L457.42 422.16L455.55 428.76L453.5 435.2L451.26 441.49L448.85 447.63L446.25 453.59L443.46 459.39L440.49 465L439.66 466.43L441.51 468.84L443.35 471.5L445 474.21L446.48 476.96L447.78 479.76L448.88 482.61L449.8 485.49L450.51 488.41L451.03 491.37L451.35 494.36L451.45 497.38L451.47 500.4L451.53 503.39L451.6 506.35L451.68 509.27L451.75 512.16L451.78 515L451.78 517.8L451.71 520.55L451.57 523.26L451.34 525.92L451 528.53L450.54 531.08L449.95 533.57L449.2 536.01L448.28 538.38L447.18 540.69L445.88 542.93L444.36 545.1L442.62 547.21L440.63 549.24L438.37 551.19L435.84 553.06L433.02 554.86L429.88 556.57L426.43 558.2L422.63 559.73L418.48 561.18L413.95 562.54L409.04 563.8L403.73 564.96L398.01 566.03L391.84 566.99L385.23 567.85L378.16 568.6L370.6 569.24L362.55 569.77L353.99 570.19L344.91 570.49L335.28 570.67L325.09 570.73L314.9 570.64L305.27 570.38L296.18 569.96L287.62 569.37L279.57 568.63L272.02 567.75L264.94 566.73L258.33 565.57L252.17 564.29L246.44 562.88L241.13 561.37L236.22 559.75L231.7 558.02L227.55 556.2L223.75 554.3L220.29 552.31L217.16 550.25L214.34 548.13L211.81 545.94L209.55 543.7L207.56 541.4L205.81 539.07L204.3 536.7L203 534.31L201.9 531.89L200.98 529.45L200.23 527.01L199.63 524.56L199.17 522.12L198.84 519.69L198.61 517.27L198.47 514.88L198.4 512.52L198.39 510.2L198.43 507.91L198.5 505.68L198.57 503.51L198.65 501.39L198.7 499.35L198.73 497.38L198.83 494.36L199.15 491.37L199.66 488.41L200.38 485.49L201.3 482.61L202.4 479.76L203.7 476.96L205.17 474.21L206.83 471.5L208.66 468.84L208.91 468.52L206.96 465L204.15 459.39L201.52 453.59L199.08 447.63L196.82 441.49L194.73 435.2L192.82 428.76L191.08 422.16L189.5 415.43L188.09 408.56L186.85 401.56L185.76 394.44L184.83 387.21L184.05 379.86L183.41 372.41L182.93 364.86L182.58 357.22L182.38 349.49L182.31 341.68L182.31 341.13L182.32 340.58L182.32 340.03L182.32 339.49L182.32 338.94L182.33 338.39L182.33 337.85L182.34 337.3L182.34 336.75L182.35 336.21L182.35 335.66L182.36 335.12L182.37 334.57L182.38 334.03L182.39 333.48L182.4 332.94L182.41 332.4L182.42 331.86L182.43 331.31L182.45 330.77L182.46 330.23L182.47 329.69L182.49 329.15L182.5 328.61L182.52 328.07L182.54 327.53L182.56 326.99L182.57 326.45L182.59 325.91L182.61 325.38L182.63 324.84L182.65 324.3L182.68 323.77L182.7 323.23L182.72 322.69L182.75 322.16L182.77 321.62L182.8 321.09L182.82 320.56L182.85 320.02L183.27 312.98L183.81 306.02L184.49 299.15L185.29 292.38L186.23 285.7L187.3 279.12L188.51 272.66L189.87 266.3L191.36 260.07L193 253.95L194.79 247.97L196.73 242.12L197.52 239.94L196.68 239.14L194.24 236.59L192 233.98L189.94 231.32L188.09 228.62L186.43 225.86L184.98 223.06L183.74 220.22L182.72 217.33L181.91 214.41L181.33 211.45L180.98 208.46L180.86 205.44L180.98 202.32L181.35 199.03L181.95 195.59L182.78 192.01L183.83 188.3L185.11 184.47L186.61 180.54L188.31 176.53L190.22 172.44L192.34 168.28L194.65 164.07L197.15 159.82L199.84 155.55L202.7 151.27L205.75 146.98L208.97 142.71L212.35 138.46L215.89 134.25L219.6 130.09L223.45 125.99L227.45 121.97L231.59 118.04L235.87 114.21L240.27 110.49L244.81 106.9L249.47 103.45L254.24 100.15L259.13 97.01L264.12 94.06L269.21 91.29L274.4 88.73L279.69 86.38L285.06 84.26L290.51 82.39L296.03 80.76L301.63 79.41L307.3 78.33L313.03 77.54L318.82 77.06L324.65 76.9L330.48 77.06L336.24 77.54L336.24 77.54L341.93 78.33Z" id="bhKDBMoJ"></path><path d="M254.96 239.29C254.96 264.29 275.26 284.59 300.27 284.59C325.27 284.59 345.57 264.29 345.57 239.29C345.57 214.28 325.27 193.98 300.27 193.98C275.26 193.98 254.96 214.28 254.96 239.29Z" id="a18DJolnbG"></path><path d="M317.44 435.54C317.44 466.41 342.51 491.48 373.39 491.48C404.27 491.48 429.34 466.41 429.34 435.54C429.34 404.66 404.27 379.59 373.39 379.59C342.51 379.59 317.44 404.66 317.44 435.54Z" id="d3BJljHMFN"></path><path d="M339.16 309.29C339.16 336.14 360.96 357.94 387.81 357.94C414.66 357.94 436.46 336.14 436.46 309.29C436.46 282.43 414.66 260.63 387.81 260.63C360.96 260.63 339.16 282.43 339.16 309.29Z" id="b3JCTQZeuB"></path><path d="M336.25 77.54L341.94 78.33L347.55 79.41L353.08 80.76L358.54 82.39L363.9 84.26L369.17 86.38L374.34 88.73L379.41 91.29L384.38 94.06L389.24 97.01L393.98 100.15L398.61 103.45L403.12 106.9L407.5 110.49L411.75 114.21L415.87 118.04L419.84 121.97L423.68 125.99L427.37 130.09L430.91 134.25L434.29 138.46L436.46 141.31L436.37 144.06L435.72 150.4L434.65 156.3L433.18 161.8L431.32 166.91L429.1 171.67L426.51 176.1L423.59 180.22L420.35 184.07L416.79 187.66L412.94 191.03L408.81 194.2L404.42 197.19L399.78 200.04L394.91 202.76L389.81 205.39L384.52 207.95L379.04 210.47L373.39 212.96L367.58 215.47L361.62 218.01L355.55 220.6L349.36 223.29L343.07 226.08L336.71 229.02L330.28 232.11L323.8 235.4L317.28 238.9L310.75 242.65L304.21 246.66L297.68 250.96L291.18 255.59L284.72 260.56L278.32 265.9L271.99 271.64L265.75 277.8L259.61 284.41L253.59 291.5L247.7 299.09L241.96 307.2L236.22 315.03L230.34 321.78L224.31 327.47L218.18 332.15L211.93 335.86L205.6 338.62L199.2 340.48L192.74 341.48L186.24 341.65L182.32 341.27L182.38 333.87L182.59 326.14L182.93 318.5L183.41 310.95L184.05 303.5L184.83 296.15L185.76 288.92L186.85 281.8L188.1 274.8L189.5 267.93L191.08 261.2L192.82 254.61L194.73 248.16L196.82 241.87L197.53 239.95L196.68 239.14L194.24 236.59L192 233.98L189.94 231.32L188.09 228.62L186.43 225.86L184.98 223.06L183.74 220.22L182.72 217.33L181.91 214.41L181.33 211.45L180.98 208.46L180.86 205.44L180.98 202.32L181.35 199.03L181.95 195.59L182.78 192.01L183.84 188.3L185.11 184.47L186.61 180.54L188.31 176.53L190.23 172.44L192.34 168.28L194.65 164.07L197.15 159.82L199.84 155.55L202.71 151.27L205.75 146.98L208.97 142.71L212.35 138.46L215.9 134.25L219.6 130.09L223.45 125.99L227.45 121.97L231.59 118.04L235.87 114.21L240.27 110.49L244.81 106.9L249.47 103.45L254.24 100.15L259.13 97.01L264.12 94.06L269.21 91.29L274.4 88.73L279.69 86.38L285.06 84.26L290.51 82.39L296.04 80.76L301.64 79.41L307.3 78.33L313.03 77.54L318.82 77.06L324.65 76.9L330.48 77.06L336.25 77.54Z" id="aPY7NpfT7"></path><path d="M209.67 491.48C209.67 515.53 229.2 535.06 253.25 535.06C277.3 535.06 296.82 515.53 296.82 491.48C296.82 467.43 277.3 447.91 253.25 447.91C229.2 447.91 209.67 467.43 209.67 491.48Z" id="hk5EJz9cV"></path><path d="M278.14 256.04C279.59 317.09 265.78 308.92 250.54 308.92C235.31 308.92 222.95 285.23 222.95 256.04C222.95 226.85 235.31 203.15 250.54 203.15C265.78 203.15 276.69 194.99 278.14 256.04Z" id="c1YJjG0DSE"></path><path d="M267.29 235.06C268.17 272.06 259.8 267.11 250.57 267.11C241.34 267.11 233.84 252.75 233.84 235.06C233.84 217.37 241.34 203.01 250.57 203.01C259.8 203.01 266.41 198.06 267.29 235.06Z" id="b2ZT4R4MbU"></path><path d="M263.1 136.65C269.18 151.92 284.08 139.41 306.43 130.52C328.78 121.64 350.15 119.72 344.08 104.45C338.01 89.18 314.94 84 292.59 92.88C270.24 101.77 257.03 121.38 263.1 136.65Z" id="aeeYPL7lo"></path><path d="M210 201.65C222.66 212.12 226.42 197.98 237.46 184.64C248.49 171.3 262.64 163.78 249.98 153.31C237.31 142.84 222.35 151.93 211.32 165.27C200.29 178.61 197.33 191.17 210 201.65Z" id="a7G95dHwv"></path><path d="M460.1 184.47L461.3 188.3L462.29 192.01L463.07 195.59L463.63 199.03L463.97 202.32L464.09 205.44L463.97 208.46L463.62 211.45L463.04 214.41L462.23 217.33L461.21 220.22L459.97 223.06L458.52 225.86L456.86 228.62L455.01 231.32L452.95 233.98L450.71 236.59L449.63 237.72L451.26 241.87L453.5 248.16L455.55 254.61L457.42 261.2L459.12 267.93L460.65 274.8L462.01 281.8L463.19 288.92L464.22 296.15L465.07 303.5L465.77 310.95L466.31 318.5L466.69 326.14L466.92 333.87L466.99 341.68L466.92 349.49L466.69 357.22L466.31 364.86L465.77 372.41L465.07 379.86L464.22 387.21L463.19 394.44L462.01 401.56L460.65 408.56L459.12 415.43L457.42 422.16L455.55 428.76L453.5 435.2L451.26 441.49L448.85 447.63L446.25 453.59L443.46 459.39L440.49 465L439.66 466.43L441.51 468.84L443.35 471.5L445 474.21L446.48 476.96L447.78 479.76L448.88 482.61L449.8 485.49L450.51 488.41L451.03 491.37L451.35 494.36L451.45 497.38L451.47 500.4L451.53 503.39L451.61 506.35L451.68 509.27L451.75 512.16L451.79 515L451.78 517.8L451.71 520.55L451.57 523.26L451.34 525.92L451 528.53L450.54 531.08L449.95 533.57L449.2 536.01L448.28 538.38L447.18 540.69L445.88 542.93L444.37 545.1L442.62 547.21L440.63 549.24L438.37 551.19L435.84 553.06L433.02 554.86L429.88 556.57L426.43 558.2L422.63 559.73L418.48 561.18L413.95 562.54L409.05 563.8L403.73 564.96L398.01 566.03L391.84 566.99L385.23 567.85L378.16 568.6L370.6 569.24L362.55 569.77L353.99 570.19L344.91 570.49L335.28 570.67L325.09 570.73L314.9 570.64L305.27 570.38L296.19 569.96L287.62 569.37L279.57 568.63L272.02 567.75L264.95 566.73L258.33 565.57L252.17 564.29L246.44 562.88L241.13 561.37L236.22 559.75L231.7 558.02L227.55 556.2L223.75 554.3L220.3 552.31L217.16 550.25L214.34 548.13L211.81 545.94L211.32 545.46L216.67 538.68L223.61 530.53L230.51 522.98L237.38 515.99L244.22 509.51L251 503.51L257.74 497.92L264.43 492.72L271.07 487.85L277.64 483.27L284.14 478.93L290.58 474.79L296.94 470.8L303.23 466.92L309.43 463.09L315.55 459.28L321.57 455.44L327.49 451.53L333.32 447.49L339.04 443.28L344.65 438.87L350.15 434.19L355.53 429.21L360.79 423.89L365.92 418.17L370.92 412L375.79 405.36L380.51 398.18L385.09 390.43L389.52 382.05L393.8 373.01L397.92 363.25L401.88 352.74L405.67 341.42L409.29 329.26L412.73 316.2L416 302.2L419.08 287.21L421.97 271.19L424.67 254.1L427.51 237.6L430.8 223.35L434.52 211.26L438.64 201.25L443.12 193.23L447.95 187.11L453.1 182.82L458.54 180.26L458.58 180.25L458.7 180.54L460.1 184.47Z" id="d75PizJUA"></path><path d="M213.29 363.77C213.29 385.82 231.2 403.73 253.25 403.73C275.3 403.73 293.2 385.82 293.2 363.77C293.2 341.72 275.3 323.82 253.25 323.82C231.2 323.82 213.29 341.72 213.29 363.77Z" id="a6TFiJB4x"></path><path d="M483.49 210.82L485.95 216.3L488.27 221.92L490.44 227.68L492.46 233.57L494.32 239.59L496.03 245.73L497.57 251.98L498.94 258.34L500.14 264.81L501.17 271.37L502.02 278.03L502.69 284.78L503.17 291.6L503.46 298.51L503.56 305.49L503.46 312.46L503.17 319.37L502.69 326.2L502.02 332.94L501.17 339.6L500.14 346.16L498.94 352.63L497.57 358.99L496.03 365.24L495.34 367.73L495.14 367.87L491.87 370.06L488.67 372.15L485.52 374.1L482.44 375.92L479.4 377.6L476.42 379.13L473.5 380.49L470.62 381.69L467.79 382.7L465 383.53L462.74 384.05L462.93 382.51L463.71 375.17L464.35 367.71L464.83 360.16L465.18 352.52L465.38 344.79L465.45 336.99L465.45 336.44L465.45 335.89L465.44 335.34L465.44 334.79L465.44 334.25L465.43 333.7L465.43 333.15L465.43 332.6L465.42 332.06L465.41 331.51L465.41 330.97L465.4 330.42L465.39 329.88L465.38 329.33L465.37 328.79L465.36 328.25L465.35 327.7L465.34 327.16L465.33 326.62L465.31 326.08L465.3 325.54L465.29 325L465.27 324.45L465.26 323.91L465.24 323.37L465.22 322.84L465.21 322.3L465.19 321.76L465.17 321.22L465.15 320.68L465.13 320.15L465.11 319.61L465.08 319.07L465.06 318.54L465.04 318L465.02 317.47L464.99 316.93L464.97 316.4L464.94 315.86L464.91 315.33L464.49 308.29L463.95 301.33L463.27 294.46L462.47 287.68L461.53 281L460.46 274.43L459.25 267.96L457.9 261.61L456.4 255.37L454.76 249.26L452.97 243.28L451.03 237.42L450.24 235.25L451.08 234.44L453.52 231.89L455.76 229.29L457.82 226.63L459.67 223.92L461.33 221.17L462.78 218.37L463.78 216.07L466.15 214.21L470.34 211.14L474.68 208.18L479.09 205.37L480.41 204.58L480.89 205.49L483.49 210.82Z" id="h2YnaT8uJM"></path><path d="M293.2 130.72C293.2 155.72 313.5 176.02 338.51 176.02C363.51 176.02 383.81 155.72 383.81 130.72C383.81 105.71 363.51 85.41 338.51 85.41C313.5 85.41 293.2 105.71 293.2 130.72Z" id="csxH49F3y"></path><path d="M461.61 285.77L462.13 288.93L463.16 296.17L464.01 303.51L464.71 310.97L465.25 318.52L465.63 326.16L465.86 333.89L465.93 341.69L465.86 349.5L465.63 357.23L465.25 364.87L464.71 372.42L464.01 379.87L463.16 387.22L462.13 394.46L460.95 401.58L459.59 408.57L458.06 415.44L456.36 422.18L454.49 428.77L452.44 435.21L450.21 441.51L447.79 447.64L445.19 453.6L442.41 459.4L439.43 465.02L438.6 466.44L440.46 468.86L442.29 471.51L443.95 474.22L445.42 476.98L446.72 479.78L447.82 482.62L448.74 485.5L449.46 488.43L449.97 491.38L450.29 494.37L450.39 497.39L450.41 500.42L450.47 503.41L450.55 506.36L450.62 509.29L450.69 512.17L450.73 515.01L450.72 517.81L450.65 520.57L450.51 523.28L450.28 525.93L449.94 528.54L449.49 531.09L448.89 533.58L448.14 536.02L447.22 538.39L446.12 540.7L444.82 542.94L443.31 545.12L441.56 547.22L439.57 549.25L437.31 551.2L434.78 553.08L431.96 554.87L428.82 556.58L425.37 558.21L421.57 559.75L417.42 561.2L412.9 562.55L407.99 563.81L402.68 564.98L396.95 566.04L390.79 567L384.17 567.86L377.1 568.61L369.55 569.25L361.5 569.78L352.93 570.2L343.85 570.5L334.22 570.68L326.29 570.73L325.88 568.35L325.41 564.16L325.19 559.97L325.24 555.77L325.56 551.58L326.17 547.41L327.08 543.26L328.3 539.14L329.83 535.06L331.7 531.02L333.9 527.03L336.46 523.09L339.38 519.23L342.67 515.43L346.34 511.72L350.41 508.09L354.89 504.55L359.78 501.12L365.1 497.79L370.85 494.58L377.05 491.5L383.24 488.19L388.98 484.33L394.28 479.96L399.17 475.12L403.66 469.84L407.77 464.15L411.53 458.1L414.95 451.72L418.05 445.04L420.85 438.1L423.38 430.94L425.65 423.6L427.69 416.1L429.51 408.49L431.13 400.8L432.57 393.06L433.86 385.32L435.01 377.61L436.04 369.97L436.97 362.42L437.83 355.02L438.63 347.78L439.39 340.76L440.14 333.98L440.89 327.48L441.66 321.3L442.47 315.48L443.34 310.04L444.3 305.03L445.35 300.48L446.53 296.43L447.86 292.91L449.34 289.97L451.01 287.62L452.87 285.92L454.96 284.9L457.29 284.59L459.88 285.03L461.61 285.77Z" id="a2RCSAMSMW"></path><path d="M360.26 256.04C358.81 317.09 372.63 308.92 387.86 308.92C403.09 308.92 415.46 285.23 415.46 256.04C415.46 226.85 403.09 203.15 387.86 203.15C372.63 203.15 361.72 194.99 360.26 256.04Z" id="a8TmdGMrxr"></path><path d="M371.12 235.06C370.24 272.06 378.61 267.11 387.84 267.11C397.07 267.11 404.56 252.75 404.56 235.06C404.56 217.37 397.07 203.01 387.84 203.01C378.61 203.01 372 198.06 371.12 235.06Z" id="jK1gGnCe4"></path><path d="M172.63 212.88L176.97 215.84L181.16 218.91L183.53 220.76L184.53 223.06L185.98 225.86L187.63 228.62L189.49 231.32L191.55 233.98L193.79 236.59L196.23 239.14L197.07 239.94L196.28 242.12L194.34 247.97L192.55 253.95L190.91 260.07L189.41 266.3L188.06 272.66L186.85 279.12L185.78 285.7L184.84 292.38L184.04 299.15L183.36 306.02L182.82 312.98L182.4 320.02L182.37 320.56L182.34 321.09L182.32 321.63L182.29 322.16L182.27 322.69L182.25 323.23L182.22 323.77L182.2 324.3L182.18 324.84L182.16 325.38L182.14 325.91L182.12 326.45L182.1 326.99L182.09 327.53L182.07 328.07L182.05 328.61L182.04 329.15L182.02 329.69L182.01 330.23L181.99 330.77L181.98 331.31L181.97 331.86L181.96 332.4L181.95 332.94L181.94 333.48L181.93 334.03L181.92 334.57L181.91 335.12L181.9 335.66L181.9 336.21L181.89 336.75L181.88 337.3L181.88 337.85L181.87 338.39L181.87 338.94L181.87 339.49L181.87 340.03L181.86 340.58L181.86 341.13L181.86 341.68L181.93 349.49L182.13 357.22L182.48 364.86L182.96 372.41L183.59 379.86L184.38 387.21L184.57 388.74L182.3 388.22L179.52 387.39L176.69 386.38L173.81 385.19L170.88 383.82L167.91 382.3L164.87 380.62L161.79 378.8L158.64 376.84L155.43 374.76L152.17 372.56L151.97 372.42L151.28 369.94L149.74 363.69L148.37 357.32L147.17 350.86L146.14 344.29L145.29 337.64L144.62 330.89L144.14 324.06L143.85 317.16L143.75 310.18L143.85 303.2L144.14 296.3L144.62 289.47L145.29 282.72L146.14 276.07L147.17 269.5L148.37 263.03L149.74 256.67L151.28 250.42L152.99 244.28L154.85 238.27L156.87 232.38L159.04 226.62L161.36 221L163.82 215.52L166.42 210.19L166.9 209.27L168.22 210.06L172.63 212.88Z" id="c24g50s4fo"></path><path d="M101.88 184.74L106.27 185.36L110.69 186.14L115.13 187.09L119.58 188.21L124.05 189.49L128.53 190.94L129.71 191.37L129.73 191.64L129.78 193.98L129.71 196.35L129.49 198.66L129.13 200.89L128.64 203.06L128.02 205.15L127.27 207.18L126.39 209.14L125.4 211.03L124.3 212.86L123.09 214.62L121.77 216.31L120.35 217.94L118.84 219.5L117.24 221L115.55 222.44L113.77 223.81L111.92 225.12L110 226.37L108.01 227.56L105.95 228.68L103.83 229.75L101.66 230.75L99.43 231.7L97.16 232.59L94.84 233.42L92.49 234.19L90.1 234.91L87.68 235.57L85.24 236.17L82.78 236.72L80.3 237.22L77.81 237.65L75.32 238.04L72.82 238.37L70.32 238.65L67.83 238.88L65.34 239.06L62.88 239.18L60.43 239.26L58 239.28L55.61 239.34L53.23 239.53L50.88 239.83L48.56 240.23L46.27 240.72L44.02 241.3L41.79 241.95L39.6 242.66L37.45 243.43L35.34 244.24L33.27 245.09L31.25 245.97L29.27 246.86L27.34 247.75L25.45 248.65L23.62 249.53L21.84 250.39L20.11 251.22L18.44 252.01L16.83 252.75L15.28 253.42L13.79 254.03L12.37 254.56L11.01 254.99L9.72 255.33L8.5 255.57L7.35 255.68L6.27 255.67L5.27 255.52L4.34 255.22L3.5 254.77L2.74 254.15L2.05 253.36L1.46 252.38L0.95 251.21L0.53 249.83L0.2 248.24L0 246.76L0.35 244.33L1.05 241.29L2.03 238.17L3.3 234.96L4.86 231.66L6.73 228.26L8.91 224.76L11.32 221.29L13.84 217.97L16.49 214.79L19.26 211.77L22.14 208.9L25.12 206.19L28.22 203.62L31.41 201.21L34.7 198.95L38.09 196.85L41.57 194.9L45.13 193.11L48.77 191.48L52.49 190L56.29 188.68L60.16 187.52L64.09 186.52L68.09 185.67L72.15 184.99L76.26 184.47L80.42 184.1L84.64 183.91L88.89 183.87L93.19 183.99L97.52 184.28L97.52 184.28L101.88 184.74Z" id="dlUwXsbIQ"></path><path d="M556.59 184.1L560.75 184.47L564.86 184.99L568.92 185.67L572.92 186.52L576.85 187.52L580.72 188.68L584.52 190L588.24 191.48L591.88 193.11L595.45 194.9L598.92 196.85L602.31 198.95L605.6 201.21L608.79 203.62L611.89 206.19L614.88 208.9L617.75 211.77L620.52 214.79L623.17 217.97L625.7 221.29L628.1 224.76L629.61 227.19L629.37 227.53L628.15 229.04L626.85 230.48L625.47 231.83L624.02 233.09L622.5 234.28L620.9 235.37L619.22 236.38L617.46 237.31L615.64 238.15L613.73 238.9L611.76 239.56L609.71 240.13L607.58 240.62L605.38 241.01L603.11 241.32L600.76 241.53L598.34 241.66L595.85 241.69L593.29 241.63L590.65 241.47L587.94 241.22L585.16 240.88L582.31 240.44L579.38 239.91L576.39 239.28L573.3 238.6L570.11 237.91L566.81 237.2L563.43 236.48L559.97 235.74L556.44 234.98L552.85 234.2L549.21 233.39L545.53 232.56L541.82 231.7L538.09 230.82L534.35 229.89L530.61 228.94L526.87 227.95L523.15 226.92L519.46 225.84L515.81 224.73L512.2 223.57L508.65 222.37L505.16 221.11L501.76 219.8L498.43 218.44L495.2 217.03L492.08 215.56L489.07 214.02L486.19 212.43L483.44 210.77L480.83 209.05L478.37 207.25L476.9 206.06L477.21 205.86L481.64 203.21L486.1 200.74L490.56 198.44L495.04 196.31L499.52 194.35L504 192.56L508.49 190.94L512.96 189.49L517.43 188.21L521.88 187.09L526.32 186.14L530.74 185.36L535.13 184.74L539.49 184.28L543.83 183.99L548.12 183.87L552.38 183.91L556.59 184.1Z" id="cK6DrFJKg"></path></defs><g><g><g><use xlink:href="#bVH94fR3e" opacity="1" fill="#021265" fill-opacity="1"></use></g><g><use xlink:href="#aqT3P0Evr" opacity="1" fill="#021265" fill-opacity="1"></use></g><g><use xlink:href="#bhKDBMoJ" opacity="1" fill="#1032a2" fill-opacity="1"></use></g><g><use xlink:href="#a18DJolnbG" opacity="1" fill="#ffffff" fill-opacity="0.11"></use></g><g><use xlink:href="#d3BJljHMFN" opacity="1" fill="#ffffff" fill-opacity="0.11"></use></g><g><use xlink:href="#b3JCTQZeuB" opacity="1" fill="#ffffff" fill-opacity="0.11"></use></g><g><use xlink:href="#aPY7NpfT7" opacity="1" fill="#ffffff" fill-opacity="0.14"></use></g><g><use xlink:href="#hk5EJz9cV" opacity="1" fill="#ffffff" fill-opacity="0.11"></use></g><g><g><use xlink:href="#c1YJjG0DSE" opacity="1" fill="#000000" fill-opacity="1"></use></g><g><use xlink:href="#b2ZT4R4MbU" opacity="1" fill="#ffffff" fill-opacity="1"></use></g></g><g><use xlink:href="#aeeYPL7lo" opacity="1" fill="#ffffff" fill-opacity="0.35"></use></g><g><use xlink:href="#a7G95dHwv" opacity="1" fill="#ffffff" fill-opacity="0.35"></use></g><g><use xlink:href="#d75PizJUA" opacity="1" fill="#000000" fill-opacity="0.14"></use></g><g><use xlink:href="#a6TFiJB4x" opacity="1" fill="#ffffff" fill-opacity="0.11"></use></g><g><use xlink:href="#h2YnaT8uJM" opacity="1" fill="#000000" fill-opacity="0.14"></use></g><g><use xlink:href="#csxH49F3y" opacity="1" fill="#ffffff" fill-opacity="0.11"></use></g><g><use xlink:href="#a2RCSAMSMW" opacity="1" fill="#000000" fill-opacity="0.15"></use></g><g><g><use xlink:href="#a8TmdGMrxr" opacity="1" fill="#000000" fill-opacity="1"></use></g><g><use xlink:href="#jK1gGnCe4" opacity="1" fill="#ffffff" fill-opacity="1"></use></g></g><g><use xlink:href="#c24g50s4fo" opacity="1" fill="#000000" fill-opacity="0.14"></use></g><g><use xlink:href="#dlUwXsbIQ" opacity="1" fill="#ffffff" fill-opacity="0.2"></use></g><g><use xlink:href="#cK6DrFJKg" opacity="1" fill="#ffffff" fill-opacity="0.2"></use></g></g></g></svg>