<?xml version="1.0" encoding="UTF-8" standalone="no"?>
<!DOCTYPE svg PUBLIC "-//W3C//DTD SVG 1.1//EN" "http://www.w3.org/Graphics/SVG/1.1/DTD/svg11.dtd">
<svg version="1.1" xmlns="http://www.w3.org/2000/svg" xmlns:xlink="http://www.w3.org/1999/xlink" preserveAspectRatio="xMidYMid meet" viewBox="0 0 640 640" width="640" height="640"><defs><path d="M640 320C640 496.61 496.61 640 320 640C143.39 640 0 496.61 0 320C0 143.39 143.39 0 320 0C496.61 0 640 143.39 640 320Z" id="a2qvuUvZjP"></path><path d="M617.03 199.39C628.51 251.95 617.22 219.59 440.61 219.59C264 219.59 0 496.61 0 320C0 143.39 143.39 0 320 0C496.61 0 605.54 146.83 617.03 199.39Z" id="a1fPXh5mkN"></path><path d="M452.87 85.33C459.34 129.87 355.93 110.32 298.96 118.59C241.99 126.86 158.35 173.56 151.89 129.02C145.43 84.48 228.72 35.47 285.69 27.2C342.67 18.93 446.41 40.79 452.87 85.33Z" id="bMeFOfVLA"></path><path d="M124.95 166.9C150.51 178.29 116.63 231.74 105.4 252.44C94.17 273.15 77.56 323.26 52.71 307.9C27.86 292.55 24.87 249.76 40.29 217.49C55.71 185.22 99.38 155.51 124.95 166.9Z" id="d4Bfm418G"></path><path d="M640 303.22C641.15 417.24 579.97 570.56 409.1 622.02C238.23 673.49 64.98 560.39 28.23 450.3C-8.53 340.21 137.15 627.49 376.94 488.82C616.73 350.15 638.85 189.2 640 303.22Z" id="d4mgkT0btW"></path><path d="M640 320C641.15 434.02 583.4 514.27 517.06 572.63C450.72 630.99 229.03 675.73 438.95 576.12C648.88 476.5 638.85 205.98 640 320Z" id="a3Zulj4afU"></path><path d="M554.78 220.04C554.78 270.12 514.12 310.78 464.04 310.78C413.96 310.78 373.3 270.12 373.3 220.04C373.3 169.96 413.96 129.3 464.04 129.3C514.12 129.3 554.78 169.96 554.78 220.04Z" id="a2TndqSVAz"></path><path d="M218.03 378.88C218.03 419.26 185.24 452.05 144.85 452.05C104.46 452.05 71.68 419.26 71.68 378.88C71.68 338.49 104.46 305.7 144.85 305.7C185.24 305.7 218.03 338.49 218.03 378.88Z" id="e3elZ9WcpT"></path><path d="M281.39 537.43C281.39 564.11 259.73 585.77 233.05 585.77C206.38 585.77 184.72 564.11 184.72 537.43C184.72 510.75 206.38 489.09 233.05 489.09C259.73 489.09 281.39 510.75 281.39 537.43Z" id="a2TJbl9We4"></path><path d="M212.12 179.64C212.12 213.08 184.97 240.23 151.54 240.23C118.1 240.23 90.95 213.08 90.95 179.64C90.95 146.2 118.1 119.05 151.54 119.05C184.97 119.05 212.12 146.2 212.12 179.64Z" id="a1Mz9C6loe"></path><path d="M519.28 463.7C519.28 497.14 492.14 524.29 458.7 524.29C425.26 524.29 398.11 497.14 398.11 463.7C398.11 430.26 425.26 403.11 458.7 403.11C492.14 403.11 519.28 430.26 519.28 463.7Z" id="bXKnvMxr8"></path><path d="M397.88 363.81C397.88 400.56 368.04 430.39 331.3 430.39C294.55 430.39 264.72 400.56 264.72 363.81C264.72 327.06 294.55 297.23 331.3 297.23C368.04 297.23 397.88 327.06 397.88 363.81Z" id="a1LYBzyDY"></path><path d="M370.69 116.13C370.69 149.57 343.55 176.72 310.11 176.72C276.67 176.72 249.52 149.57 249.52 116.13C249.52 82.69 276.67 55.55 310.11 55.55C343.55 55.55 370.69 82.69 370.69 116.13Z" id="cnKuXzdAt"></path></defs><g><g><g><use xlink:href="#a2qvuUvZjP" opacity="1" fill="#908a4c" fill-opacity="1"></use></g><g><use xlink:href="#a1fPXh5mkN" opacity="1" fill="#ffffff" fill-opacity="0.11"></use></g><g><use xlink:href="#bMeFOfVLA" opacity="1" fill="#ffffff" fill-opacity="0.16"></use></g><g><use xlink:href="#d4Bfm418G" opacity="1" fill="#ffffff" fill-opacity="0.16"></use></g><g><use xlink:href="#d4mgkT0btW" opacity="1" fill="#000000" fill-opacity="0.14"></use></g><g><use xlink:href="#a3Zulj4afU" opacity="1" fill="#000000" fill-opacity="0.18"></use></g><g><use xlink:href="#a2TndqSVAz" opacity="1" fill="#ffffff" fill-opacity="0.05"></use></g><g><use xlink:href="#e3elZ9WcpT" opacity="1" fill="#ffffff" fill-opacity="0.05"></use></g><g><use xlink:href="#a2TJbl9We4" opacity="1" fill="#ffffff" fill-opacity="0.05"></use></g><g><use xlink:href="#a1Mz9C6loe" opacity="1" fill="#ffffff" fill-opacity="0.05"></use></g><g><use xlink:href="#bXKnvMxr8" opacity="1" fill="#ffffff" fill-opacity="0.05"></use></g><g><use xlink:href="#a1LYBzyDY" opacity="1" fill="#ffffff" fill-opacity="0.05"></use></g><g><use xlink:href="#cnKuXzdAt" opacity="1" fill="#ffffff" fill-opacity="0.05"></use></g></g></g></svg>