<?xml version="1.0" encoding="UTF-8" standalone="no"?>
<!DOCTYPE svg PUBLIC "-//W3C//DTD SVG 1.1//EN" "http://www.w3.org/Graphics/SVG/1.1/DTD/svg11.dtd">
<svg version="1.1" xmlns="http://www.w3.org/2000/svg" xmlns:xlink="http://www.w3.org/1999/xlink" preserveAspectRatio="xMidYMid meet" viewBox="0 0 640 640" width="600" height="600"><defs><path d="M34.91 217.11L34.91 424.93L-0.06 424.93L-0.06 217.11L34.91 217.11Z" id="l4460LkQsw"></path><path d="M422.11 29.04L216.26 29.04L216.26 0L422.11 0L422.11 29.04Z" id="b8L6CpoH2W"></path><path d="M34.57 433L34.8 436.72L34.91 440.64L34.91 444.74L34.8 449.01L34.6 453.43L34.31 458L33.95 462.69L33.51 467.49L33.02 472.39L32.47 477.36L31.88 482.41L31.25 487.5L30.59 492.63L29.92 497.79L29.24 502.95L28.55 508.1L27.87 513.23L27.21 518.33L26.58 523.37L25.97 528.35L25.41 533.24L24.9 538.04L24.44 542.73L24.06 547.29L23.75 551.71L23.48 555.94L23.21 559.94L22.95 563.72L22.7 567.28L22.46 570.64L22.22 573.79L21.99 576.76L21.77 579.54L21.56 582.15L21.36 584.6L21.17 586.88L20.99 589.01L20.82 591L20.67 592.86L20.53 594.58L20.41 596.19L20.3 597.69L20.21 599.08L20.14 600.37L20.08 601.58L20.04 602.71L20.02 603.77L20.02 604.76L20.04 605.7L20.08 606.59L20.15 607.43L20.23 608.25L20.34 609.04L20.48 609.82L20.63 610.58L20.82 611.35L21.03 612.12L21.27 612.91L21.53 613.72L21.83 614.56L22.15 615.44L22.5 616.36L22.88 617.34L23.3 618.39L23.75 619.5L24.18 620.66L24.58 621.85L24.92 623.04L25.22 624.24L25.47 625.43L25.67 626.62L25.82 627.79L25.93 628.94L25.98 629.95L23.92 628.26L21.89 626.44L19.93 624.55L18.04 622.59L16.23 620.56L14.49 618.46L12.84 616.29L11.27 614.06L9.78 611.76L8.38 609.41L7.07 607L5.85 604.53L4.73 602.01L3.7 599.44L2.77 596.82L1.94 594.15L1.22 591.45L0.6 588.7L0.08 585.91L-0.32 583.08L-0.61 580.22L-0.79 577.32L-0.84 574.4L-0.84 424.93L33.43 424.93L33.71 426.23L34.2 429.5L34.57 433Z" id="b2uTnZgLg"></path><path d="M215.43 614.64L217.05 614.85L217.05 642.04L70.87 642.04L67.95 641.98L65.05 641.81L62.95 641.59L63.21 641.18L63.7 640.59L64.28 640.01L64.96 639.44L65.75 638.88L66.65 638.32L67.67 637.77L68.81 637.23L70.08 636.68L71.49 636.14L73.03 635.59L74.72 635.04L76.56 634.48L78.56 633.92L80.72 633.35L83.05 632.77L85.56 632.17L88.24 631.56L91.1 630.93L94.16 630.29L97.41 629.63L100.87 628.94L104.53 628.24L108.4 627.5L112.49 626.74L116.8 625.96L121.35 625.14L126.12 624.29L131.14 623.41L136.41 622.49L141.92 621.53L147.69 620.54L153.73 619.5L160.03 618.42L166.61 617.3L173.17 616.26L179.44 615.42L185.4 614.78L191.08 614.33L196.49 614.05L201.61 613.96L206.48 614.03L211.08 614.26L215.43 614.64Z" id="a5Myk5iFU"></path><path d="M574.89 0.24L577.75 0.53L580.58 0.93L583.37 1.44L586.12 2.06L588.83 2.79L591.49 3.62L594.11 4.55L596.68 5.57L599.2 6.7L601.67 7.92L604.08 9.23L606.43 10.63L608.73 12.11L610.96 13.69L613.13 15.34L615.23 17.07L617.26 18.89L619.23 20.77L621.11 22.74L622.93 24.77L624.61 26.81L623.86 26.77L622.72 26.67L621.57 26.51L620.4 26.31L619.22 26.06L618.04 25.77L616.87 25.42L615.7 25.03L614.56 24.59L613.46 24.15L612.44 23.77L611.49 23.44L610.59 23.16L609.75 22.92L608.95 22.73L608.18 22.57L607.43 22.46L606.7 22.38L605.99 22.34L605.27 22.33L604.54 22.34L603.8 22.38L603.04 22.45L602.24 22.54L601.4 22.65L600.51 22.77L599.57 22.91L598.56 23.06L597.48 23.21L596.32 23.38L595.06 23.55L593.71 23.72L592.25 23.89L590.68 24.06L588.99 24.23L587.16 24.38L585.2 24.53L583.08 24.66L580.82 24.78L578.39 24.88L575.78 24.96L573 25.02L570.03 25.05L566.86 25.06L563.49 25.03L559.9 24.98L556.09 24.88L552.06 24.76L547.78 24.59L543.3 24.45L538.68 24.4L533.92 24.44L529.04 24.55L524.06 24.72L518.99 24.96L513.85 25.24L508.65 25.55L503.41 25.9L498.15 26.27L492.87 26.65L487.59 27.04L482.33 27.42L477.11 27.79L471.94 28.13L466.83 28.45L461.8 28.72L456.86 28.94L452.04 29.11L447.34 29.21L442.78 29.24L438.38 29.18L434.15 29.03L430.11 28.77L426.26 28.41L422.89 27.96L422.89 0L569.07 0L572 0.06L574.89 0.24Z" id="b1ASW9rlfq"></path><path d="M640 71.71L640 217.89L601.93 217.89L602.01 214.7L602.2 210.65L602.49 206.33L602.89 201.72L603.39 196.81L604.01 191.59L604.73 186.05L605.58 180.19L606.54 174L607.62 167.45L608.76 160.88L609.88 154.57L610.98 148.54L612.07 142.77L613.14 137.25L614.19 131.99L615.23 126.97L616.26 122.19L617.27 117.65L618.26 113.33L619.24 109.24L620.21 105.37L621.16 101.71L622.1 98.26L623.03 95L623.95 91.95L624.85 89.08L625.74 86.4L626.62 83.9L627.49 81.57L628.35 79.41L629.19 77.41L630.03 75.57L630.86 73.88L631.68 72.33L632.49 70.93L633.29 69.66L634.08 68.51L634.87 67.5L635.64 66.59L636.41 65.81L637.17 65.12L637.93 64.54L638.68 64.06L639.42 63.66L639.53 63.62L639.76 65.9L639.94 68.79L640 71.71Z" id="cp07tZ6Dx"></path><path d="M601.93 217.11L601.93 424.93L640 424.93L640 217.11L601.93 217.11Z" id="c1dgT9uaOa"></path><path d="M639.76 576.7L639.47 579.56L639.07 582.39L638.56 585.17L637.94 587.93L637.21 590.63L636.38 593.3L635.45 595.92L634.43 598.49L633.3 601.01L632.08 603.48L630.77 605.89L629.37 608.24L627.89 610.54L626.31 612.77L624.66 614.94L622.93 617.04L621.11 619.07L619.23 621.03L617.26 622.92L615.23 624.73L613.13 626.47L610.96 628.12L608.73 629.69L606.43 631.18L604.08 632.58L601.67 633.89L599.2 635.11L596.68 636.23L594.11 637.26L591.49 638.19L589.58 638.79L584.51 639.94L577.61 641.3L574.89 641.57L572 641.75L569.07 641.81L439.35 641.81L433.93 640.67L428.57 639.33L423.69 637.87L422.89 637.58L422.89 610.56L423.23 610.45L427 609.51L431.06 608.66L435.38 607.89L439.95 607.18L444.73 606.52L449.71 605.92L454.86 605.35L460.15 604.8L465.57 604.27L471.1 603.75L476.7 603.21L482.36 602.67L488.06 602.1L493.76 601.49L499.45 600.83L505.1 600.12L510.7 599.34L516.21 598.48L521.61 597.54L526.89 596.5L532.01 595.35L536.96 594.08L541.72 592.68L546.25 591.14L550.53 589.46L554.55 587.61L558.28 585.59L561.69 583.4L564.77 581.01L567.49 578.42L569.82 575.63L571.89 572.48L573.82 568.89L575.63 564.88L577.32 560.47L578.9 555.71L580.39 550.6L581.78 545.2L583.09 539.52L584.33 533.59L585.5 527.45L586.61 521.12L587.67 514.62L588.7 508L589.69 501.28L590.65 494.49L591.61 487.66L592.55 480.81L593.5 473.98L594.45 467.2L595.43 460.49L596.43 453.88L597.46 447.4L598.54 441.09L599.67 434.97L600.86 429.07L602.12 423.42L602.16 423.29L640 422.99L640 570.88L639.94 573.8L639.76 576.7Z" id="b7FDvnmIw"></path><path d="M422.89 613.96L217.05 613.96L217.05 640L422.89 640L422.89 613.96Z" id="a4GKeMaKey"></path><path d="M216.26 26.98L214.94 27.36L210.96 28.33L206.68 29.22L202.12 30.02L197.31 30.77L192.27 31.46L187.03 32.1L181.61 32.71L176.04 33.29L170.33 33.86L164.52 34.43L158.63 35L152.69 35.59L146.71 36.2L140.73 36.85L134.76 37.54L128.83 38.29L122.97 39.11L117.21 40L111.56 40.98L106.04 42.06L100.7 43.24L95.54 44.54L90.6 45.96L85.89 47.52L81.45 49.23L77.3 51.1L73.45 53.13L69.95 55.34L66.81 57.73L64.05 60.33L61.7 63.13L59.66 66.22L57.79 69.67L56.09 73.46L54.54 77.55L53.14 81.93L51.88 86.57L50.73 91.45L49.7 96.54L48.77 101.81L47.93 107.25L47.17 112.83L46.48 118.52L45.86 124.3L45.27 130.15L44.73 136.05L44.21 141.96L43.71 147.86L43.22 153.73L42.72 159.55L42.2 165.29L41.66 170.92L41.08 176.43L40.45 181.78L39.76 186.96L39.01 191.94L38.17 196.69L37.24 201.19L36.21 205.42L35.07 209.35L33.81 212.96L32.41 216.23L31.95 217.11L0.57 217.11L-0.84 215.19L-0.84 70.93L-0.79 68L-0.61 65.11L-0.32 62.25L0.08 59.42L0.6 56.63L1.22 53.88L1.94 51.17L2.77 48.51L3.7 45.89L4.73 43.32L5.85 40.8L7.07 38.33L8.38 35.92L9.78 33.57L11.27 31.27L12.84 29.04L14.49 26.87L16.23 24.77L18.04 22.74L19.93 20.77L21.89 18.89L23.85 17.14L25.97 15.41L28.18 13.75L30.45 12.17L32.78 10.67L35.17 9.27L37.62 7.95L40.12 6.73L42.68 5.6L45.28 4.56L47.94 3.63L50.64 2.8L53.38 2.07L56.17 1.45L58.99 0.93L61.85 0.53L64.75 0.24L67.68 0.06L70.63 0L214.95 0L215.47 0.15L216.26 0.42L216.26 26.98Z" id="d3GmGzFP4e"></path></defs><g><g><g><use xlink:href="#l4460LkQsw" opacity="1" fill="#ffffff" fill-opacity="1"></use><g><use xlink:href="#l4460LkQsw" opacity="1" fill-opacity="0" stroke="#000000" stroke-width="1" stroke-opacity="0"></use></g></g><g><use xlink:href="#b8L6CpoH2W" opacity="1" fill="#ffffff" fill-opacity="1"></use><g><use xlink:href="#b8L6CpoH2W" opacity="1" fill-opacity="0" stroke="#000000" stroke-width="1" stroke-opacity="0"></use></g></g><g><use xlink:href="#b2uTnZgLg" opacity="1" fill="#ffffff" fill-opacity="1"></use><g><use xlink:href="#b2uTnZgLg" opacity="1" fill-opacity="0" stroke="#000000" stroke-width="1" stroke-opacity="0"></use></g></g><g><use xlink:href="#a5Myk5iFU" opacity="1" fill="#000000" fill-opacity="1"></use><g><use xlink:href="#a5Myk5iFU" opacity="1" fill-opacity="0" stroke="#000000" stroke-width="1" stroke-opacity="0"></use></g></g><g><use xlink:href="#b1ASW9rlfq" opacity="1" fill="#ffffff" fill-opacity="1"></use><g><use xlink:href="#b1ASW9rlfq" opacity="1" fill-opacity="0" stroke="#000000" stroke-width="1" stroke-opacity="0"></use></g></g><g><use xlink:href="#cp07tZ6Dx" opacity="1" fill="#000000" fill-opacity="1"></use><g><use xlink:href="#cp07tZ6Dx" opacity="1" fill-opacity="0" stroke="#000000" stroke-width="1" stroke-opacity="0"></use></g></g><g><use xlink:href="#c1dgT9uaOa" opacity="1" fill="#000000" fill-opacity="1"></use><g><use xlink:href="#c1dgT9uaOa" opacity="1" fill-opacity="0" stroke="#000000" stroke-width="1" stroke-opacity="0"></use></g></g><g><use xlink:href="#b7FDvnmIw" opacity="1" fill="#000000" fill-opacity="1"></use><g><use xlink:href="#b7FDvnmIw" opacity="1" fill-opacity="0" stroke="#000000" stroke-width="1" stroke-opacity="0"></use></g></g><g><use xlink:href="#a4GKeMaKey" opacity="1" fill="#000000" fill-opacity="1"></use><g><use xlink:href="#a4GKeMaKey" opacity="1" fill-opacity="0" stroke="#000000" stroke-width="1" stroke-opacity="0"></use></g></g><g><use xlink:href="#d3GmGzFP4e" opacity="1" fill="#ffffff" fill-opacity="1"></use><g><use xlink:href="#d3GmGzFP4e" opacity="1" fill-opacity="0" stroke="#000000" stroke-width="1" stroke-opacity="0"></use></g></g></g></g></svg>